# xmcd
#
# Track frame offsets:
#	150
#	19465
#	37525
#	55791
#	78301
#	97897
#	115045
#	134843
#	159143
#	177604
#
# Disc length: 2584 seconds
# Revision: 0
# Processed by: cddbd v1.5.2PL0 Copyright (c) Steve Scherf et al.
# Submitted via: dBpowerAMP V12.0
#
DISCID=740a160a
DTITLE=Justin Yap Band - Long Way From Home
DYEAR=2013
DGENRE=Blues
TTITLE0=Been Too Long
TTITLE1=Hold on
TTITLE2=Free
TTITLE3=Nowhere Train
TTITLE4=Only You Know and I Know
TTITLE5=Long Way from Home
TTITLE6=Someday After a While
TTITLE7=Them Changes
TTITLE8=He Don't Do
TTITLE9=I'll Fly Away
EXTD=
EXTT0=
EXTT1=
EXTT2=
EXTT3=
EXTT4=
EXTT5=
EXTT6=
EXTT7=
EXTT8=
EXTT9=
PLAYORDER=
